<svg xmlns="http://www.w3.org/2000/svg" viewBox="0 0 900 320">
  <defs>
    <linearGradient id="bg3" x1="0%" y1="0%" x2="100%" y2="100%">
      <stop offset="0%" style="stop-color:#0f172a"/>
      <stop offset="100%" style="stop-color:#1e293b"/>
    </linearGradient>
    <filter id="sh2">
      <feDropShadow dx="0" dy="3" stdDeviation="6" flood-color="#000" flood-opacity="0.25"/>
    </filter>
  </defs>

  <rect width="900" height="320" rx="12" fill="url(#bg3)"/>

  <!-- Title -->
  <text x="450" y="40" text-anchor="middle" font-family="system-ui, sans-serif" font-size="22" font-weight="700" fill="#f8fafc">Why Engram Memory?</text>

  <!-- Row 1 -->
  <!-- Feature 1: Hybrid Search -->
  <g transform="translate(30, 65)" filter="url(#sh2)">
    <rect width="270" height="105" rx="10" fill="#1e293b" stroke="#334155" stroke-width="1"/>
    <circle cx="35" cy="35" r="18" fill="#6366f1" opacity="0.15"/>
    <g transform="translate(24, 24)" stroke="#6366f1" stroke-width="2" fill="none" stroke-linecap="round">
      <circle cx="9" cy="9" r="7"/><line x1="14" y1="14" x2="20" y2="20" stroke-width="2.5"/>
    </g>
    <text x="65" y="33" font-family="system-ui, sans-serif" font-size="14" font-weight="600" fill="#e2e8f0">Hybrid Search</text>
    <text x="65" y="52" font-family="system-ui, sans-serif" font-size="12" fill="#94a3b8">BM25 + vector, MMR diversity</text>
    <text x="65" y="70" font-family="system-ui, sans-serif" font-size="12" fill="#94a3b8">Synonym expansion, stemming, PRF</text>
    <text x="65" y="88" font-family="system-ui, sans-serif" font-size="12" fill="#64748b">0.792 recall on real-world queries</text>
  </g>

  <!-- Feature 2: Knowledge Graph -->
  <g transform="translate(315, 65)" filter="url(#sh2)">
    <rect width="270" height="105" rx="10" fill="#1e293b" stroke="#334155" stroke-width="1"/>
    <circle cx="35" cy="35" r="18" fill="#8b5cf6" opacity="0.15"/>
    <g transform="translate(24, 22)" stroke="#8b5cf6" stroke-width="2" fill="none">
      <circle cx="5" cy="5" r="3.5" fill="#8b5cf6" opacity="0.4"/>
      <circle cx="20" cy="5" r="3.5" fill="#8b5cf6" opacity="0.4"/>
      <circle cx="12" cy="20" r="3.5" fill="#8b5cf6" opacity="0.4"/>
      <line x1="8" y1="6" x2="17" y2="6"/><line x1="7" y1="8" x2="10" y2="17"/><line x1="18" y1="8" x2="14" y2="17"/>
    </g>
    <text x="65" y="33" font-family="system-ui, sans-serif" font-size="14" font-weight="600" fill="#e2e8f0">Knowledge Graph</text>
    <text x="65" y="52" font-family="system-ui, sans-serif" font-size="12" fill="#94a3b8">7 relation types, multi-hop BFS</text>
    <text x="65" y="70" font-family="system-ui, sans-serif" font-size="12" fill="#94a3b8">Auto-expand linked memories</text>
    <text x="65" y="88" font-family="system-ui, sans-serif" font-size="12" fill="#64748b">Semantic clusters with centroids</text>
  </g>

  <!-- Feature 3: Expert Routing -->
  <g transform="translate(600, 65)" filter="url(#sh2)">
    <rect width="270" height="105" rx="10" fill="#1e293b" stroke="#334155" stroke-width="1"/>
    <circle cx="35" cy="35" r="18" fill="#a78bfa" opacity="0.15"/>
    <g transform="translate(24, 24)" stroke="#a78bfa" stroke-width="2" fill="none" stroke-linecap="round">
      <circle cx="11" cy="3" r="3" fill="#a78bfa" opacity="0.4"/>
      <circle cx="4" cy="16" r="3" fill="#a78bfa" opacity="0.4"/>
      <circle cx="18" cy="16" r="3" fill="#a78bfa" opacity="0.4"/>
      <line x1="9" y1="6" x2="5" y2="13"/><line x1="13" y1="6" x2="17" y2="13"/>
    </g>
    <text x="65" y="33" font-family="system-ui, sans-serif" font-size="14" font-weight="600" fill="#e2e8f0">Expert Routing</text>
    <text x="65" y="52" font-family="system-ui, sans-serif" font-size="12" fill="#94a3b8">HMoE 3-level domain tree</text>
    <text x="65" y="70" font-family="system-ui, sans-serif" font-size="12" fill="#94a3b8">Semantic dispatch to specialists</text>
    <text x="65" y="88" font-family="system-ui, sans-serif" font-size="12" fill="#64748b">Zero LLM API calls for routing</text>
  </g>

  <!-- Row 2 -->
  <!-- Feature 4: Lifecycle -->
  <g transform="translate(30, 190)" filter="url(#sh2)">
    <rect width="270" height="105" rx="10" fill="#1e293b" stroke="#334155" stroke-width="1"/>
    <circle cx="35" cy="35" r="18" fill="#22c55e" opacity="0.15"/>
    <g transform="translate(24, 24)" stroke="#22c55e" stroke-width="2" fill="none" stroke-linecap="round">
      <path d="M4 11 A8 8 0 1 1 18 11" /><line x1="18" y1="11" x2="18" y2="6"/><line x1="18" y1="11" x2="22" y2="11"/>
    </g>
    <text x="65" y="33" font-family="system-ui, sans-serif" font-size="14" font-weight="600" fill="#e2e8f0">Lifecycle Management</text>
    <text x="65" y="52" font-family="system-ui, sans-serif" font-size="12" fill="#94a3b8">STM / LTM / Archived states</text>
    <text x="65" y="70" font-family="system-ui, sans-serif" font-size="12" fill="#94a3b8">Activation energy decay</text>
    <text x="65" y="88" font-family="system-ui, sans-serif" font-size="12" fill="#64748b">Auto-resurrect on deep recall</text>
  </g>

  <!-- Feature 5: Multi-Agent -->
  <g transform="translate(315, 190)" filter="url(#sh2)">
    <rect width="270" height="105" rx="10" fill="#1e293b" stroke="#334155" stroke-width="1"/>
    <circle cx="35" cy="35" r="18" fill="#3b82f6" opacity="0.15"/>
    <g transform="translate(22, 23)" stroke="#3b82f6" stroke-width="2" fill="none" stroke-linecap="round">
      <circle cx="8" cy="8" r="5"/><circle cx="20" cy="8" r="5"/>
      <path d="M13 10 L13 6" stroke-dasharray="2,2" opacity="0.6"/>
    </g>
    <text x="65" y="33" font-family="system-ui, sans-serif" font-size="14" font-weight="600" fill="#e2e8f0">Multi-Agent Sharing</text>
    <text x="65" y="52" font-family="system-ui, sans-serif" font-size="12" fill="#94a3b8">Namespace ownership &amp; permissions</text>
    <text x="65" y="70" font-family="system-ui, sans-serif" font-size="12" fill="#94a3b8">Cross-namespace RRF search</text>
    <text x="65" y="88" font-family="system-ui, sans-serif" font-size="12" fill="#64748b">Backward compatible defaults</text>
  </g>

  <!-- Feature 6: Local-First -->
  <g transform="translate(600, 190)" filter="url(#sh2)">
    <rect width="270" height="105" rx="10" fill="#1e293b" stroke="#334155" stroke-width="1"/>
    <circle cx="35" cy="35" r="18" fill="#f59e0b" opacity="0.15"/>
    <g transform="translate(24, 24)" stroke="#f59e0b" stroke-width="2" fill="none" stroke-linecap="round">
      <rect x="3" y="0" width="16" height="20" rx="3"/><line x1="8" y1="5" x2="14" y2="5"/><line x1="8" y1="10" x2="14" y2="10"/><line x1="8" y1="15" x2="12" y2="15"/>
    </g>
    <text x="65" y="33" font-family="system-ui, sans-serif" font-size="14" font-weight="600" fill="#e2e8f0">Local-First</text>
    <text x="65" y="52" font-family="system-ui, sans-serif" font-size="12" fill="#94a3b8">Concurrent ONNX embeddings</text>
    <text x="65" y="70" font-family="system-ui, sans-serif" font-size="12" fill="#94a3b8">JSON or SQLite storage</text>
    <text x="65" y="88" font-family="system-ui, sans-serif" font-size="12" fill="#64748b">No cloud, no API keys, MIT license</text>
  </g>
</svg>
