<svg xmlns="http://www.w3.org/2000/svg" viewBox="0 0 900 460" role="img" aria-label="Why Engram Memory — six pillars (Hybrid Search, Knowledge Graph, Expert Routing, Lifecycle, Multi-Agent, Local-First) plus the v0.9.0 Memory Diffusion subsystem">
  <defs>
    <linearGradient id="fbg" x1="0%" y1="0%" x2="100%" y2="100%">
      <stop offset="0%" stop-color="#0b1027"/>
      <stop offset="100%" stop-color="#1e1b4b"/>
    </linearGradient>
    <linearGradient id="ftitle" x1="0%" y1="0%" x2="100%" y2="0%">
      <stop offset="0%" stop-color="#e0e7ff"/>
      <stop offset="100%" stop-color="#f0abfc"/>
    </linearGradient>
    <linearGradient id="rail" x1="0%" y1="0%" x2="100%" y2="0%">
      <stop offset="0%" stop-color="#22d3ee"/>
      <stop offset="50%" stop-color="#6366f1"/>
      <stop offset="100%" stop-color="#d946ef"/>
    </linearGradient>

    <!-- per-card accent gradients -->
    <linearGradient id="c1" x1="0%" y1="0%" x2="100%" y2="0%"><stop offset="0%" stop-color="#22d3ee"/><stop offset="100%" stop-color="#6366f1"/></linearGradient>
    <linearGradient id="c2" x1="0%" y1="0%" x2="100%" y2="0%"><stop offset="0%" stop-color="#8b5cf6"/><stop offset="100%" stop-color="#d946ef"/></linearGradient>
    <linearGradient id="c3" x1="0%" y1="0%" x2="100%" y2="0%"><stop offset="0%" stop-color="#a855f7"/><stop offset="100%" stop-color="#f472b6"/></linearGradient>
    <linearGradient id="c4" x1="0%" y1="0%" x2="100%" y2="0%"><stop offset="0%" stop-color="#10b981"/><stop offset="100%" stop-color="#22d3ee"/></linearGradient>
    <linearGradient id="c5" x1="0%" y1="0%" x2="100%" y2="0%"><stop offset="0%" stop-color="#3b82f6"/><stop offset="100%" stop-color="#8b5cf6"/></linearGradient>
    <linearGradient id="c6" x1="0%" y1="0%" x2="100%" y2="0%"><stop offset="0%" stop-color="#f59e0b"/><stop offset="100%" stop-color="#f472b6"/></linearGradient>
    <linearGradient id="c7" x1="0%" y1="0%" x2="100%" y2="0%">
      <stop offset="0%" stop-color="#5eead4"/>
      <stop offset="50%" stop-color="#a78bfa"/>
      <stop offset="100%" stop-color="#f0abfc"/>
    </linearGradient>

    <radialGradient id="ripple" cx="50%" cy="50%" r="50%">
      <stop offset="0%" stop-color="#a78bfa" stop-opacity="0.20"/>
      <stop offset="60%" stop-color="#a78bfa" stop-opacity="0.06"/>
      <stop offset="100%" stop-color="#a78bfa" stop-opacity="0"/>
    </radialGradient>

    <filter id="card" x="-5%" y="-5%" width="110%" height="120%">
      <feDropShadow dx="0" dy="4" stdDeviation="8" flood-color="#000" flood-opacity="0.35"/>
    </filter>
    <filter id="gl" x="-50%" y="-50%" width="200%" height="200%">
      <feGaussianBlur stdDeviation="2.4" result="b"/>
      <feMerge><feMergeNode in="b"/><feMergeNode in="SourceGraphic"/></feMerge>
    </filter>

    <pattern id="fdots" width="28" height="28" patternUnits="userSpaceOnUse">
      <circle cx="1" cy="1" r="1" fill="#6366f1" fill-opacity="0.08"/>
    </pattern>
  </defs>

  <rect width="900" height="460" rx="14" fill="url(#fbg)"/>
  <rect width="900" height="460" rx="14" fill="url(#fdots)"/>

  <!-- Title -->
  <text x="450" y="42" text-anchor="middle" font-family="system-ui, sans-serif" font-size="24" font-weight="800" fill="url(#ftitle)" letter-spacing="-0.3">Why Engram Memory?</text>
  <text x="450" y="64" text-anchor="middle" font-family="system-ui, sans-serif" font-size="12" fill="#94a3b8">Six pillars · plus a v0.9.0 memory-diffusion subsystem that ties them together</text>
  <rect x="380" y="72" width="140" height="2" rx="1" fill="url(#rail)" opacity="0.85"/>

  <!-- 1. Hybrid Search -->
  <g transform="translate(30,90)" filter="url(#card)">
    <rect width="270" height="112" rx="12" fill="#0f172a" stroke="#1e293b"/>
    <rect width="270" height="3" rx="1.5" fill="url(#c1)"/>
    <circle cx="40" cy="44" r="22" fill="#22d3ee" fill-opacity="0.14"/>
    <g transform="translate(28,32)" stroke="url(#c1)" stroke-width="2.2" fill="none" stroke-linecap="round" filter="url(#gl)">
      <circle cx="10" cy="10" r="8"/>
      <line x1="16" y1="16" x2="24" y2="24" stroke-width="2.8"/>
    </g>
    <text x="74" y="38" font-family="system-ui, sans-serif" font-size="15" font-weight="700" fill="#e2e8f0">Hybrid Search</text>
    <text x="74" y="58" font-family="system-ui, sans-serif" font-size="12" fill="#a5b4fc">BM25 + vector · MMR · spectral re-rank</text>
    <text x="74" y="76" font-family="system-ui, sans-serif" font-size="12" fill="#94a3b8">Synonyms · stemming · PRF · auto mode</text>
    <g transform="translate(20,88)">
      <rect width="96" height="18" rx="9" fill="#22d3ee" fill-opacity="0.14"/>
      <text x="48" y="12" text-anchor="middle" font-family="ui-monospace, monospace" font-size="10" fill="#67e8f9">recall 0.92 (auto)</text>
    </g>
  </g>

  <!-- 2. Knowledge Graph -->
  <g transform="translate(315,90)" filter="url(#card)">
    <rect width="270" height="112" rx="12" fill="#0f172a" stroke="#1e293b"/>
    <rect width="270" height="3" rx="1.5" fill="url(#c2)"/>
    <circle cx="40" cy="44" r="22" fill="#8b5cf6" fill-opacity="0.14"/>
    <g transform="translate(26,30)" stroke="url(#c2)" stroke-width="2" fill="none" filter="url(#gl)">
      <line x1="8" y1="8" x2="24" y2="8"/>
      <line x1="6" y1="11" x2="14" y2="24"/>
      <line x1="26" y1="11" x2="18" y2="24"/>
      <circle cx="8" cy="8" r="3.5" fill="#a78bfa"/>
      <circle cx="24" cy="8" r="3.5" fill="#d946ef"/>
      <circle cx="16" cy="25" r="3.5" fill="#c4b5fd"/>
    </g>
    <text x="74" y="38" font-family="system-ui, sans-serif" font-size="15" font-weight="700" fill="#e2e8f0">Knowledge Graph</text>
    <text x="74" y="58" font-family="system-ui, sans-serif" font-size="12" fill="#c4b5fd">7 relations · multi-hop BFS · auto-link</text>
    <text x="74" y="76" font-family="system-ui, sans-serif" font-size="12" fill="#94a3b8">Densifies itself from embedding similarity</text>
    <g transform="translate(20,88)">
      <rect width="120" height="18" rx="9" fill="#8b5cf6" fill-opacity="0.14"/>
      <text x="60" y="12" text-anchor="middle" font-family="ui-monospace, monospace" font-size="10" fill="#c4b5fd">clusters + centroids</text>
    </g>
  </g>

  <!-- 3. Expert Routing -->
  <g transform="translate(600,90)" filter="url(#card)">
    <rect width="270" height="112" rx="12" fill="#0f172a" stroke="#1e293b"/>
    <rect width="270" height="3" rx="1.5" fill="url(#c3)"/>
    <circle cx="40" cy="44" r="22" fill="#a855f7" fill-opacity="0.14"/>
    <g transform="translate(26,28)" stroke="url(#c3)" stroke-width="2" fill="none" filter="url(#gl)">
      <circle cx="14" cy="4" r="3.5" fill="#d8b4fe"/>
      <circle cx="4" cy="22" r="3.5" fill="#f472b6"/>
      <circle cx="24" cy="22" r="3.5" fill="#a855f7"/>
      <line x1="12" y1="7" x2="6" y2="19"/>
      <line x1="16" y1="7" x2="22" y2="19"/>
      <line x1="7" y1="22" x2="21" y2="22"/>
    </g>
    <text x="74" y="38" font-family="system-ui, sans-serif" font-size="15" font-weight="700" fill="#e2e8f0">Expert Routing</text>
    <text x="74" y="58" font-family="system-ui, sans-serif" font-size="12" fill="#f0abfc">HMoE · 3-level domain tree</text>
    <text x="74" y="76" font-family="system-ui, sans-serif" font-size="12" fill="#94a3b8">Semantic dispatch to specialists</text>
    <g transform="translate(20,88)">
      <rect width="124" height="18" rx="9" fill="#a855f7" fill-opacity="0.14"/>
      <text x="62" y="12" text-anchor="middle" font-family="ui-monospace, monospace" font-size="10" fill="#e9d5ff">zero LLM calls</text>
    </g>
  </g>

  <!-- 4. Lifecycle -->
  <g transform="translate(30,218)" filter="url(#card)">
    <rect width="270" height="112" rx="12" fill="#0f172a" stroke="#1e293b"/>
    <rect width="270" height="3" rx="1.5" fill="url(#c4)"/>
    <circle cx="40" cy="44" r="22" fill="#10b981" fill-opacity="0.14"/>
    <g transform="translate(26,30)" stroke="url(#c4)" stroke-width="2.2" fill="none" stroke-linecap="round" filter="url(#gl)">
      <path d="M4 14 A10 10 0 1 1 22 14"/>
      <polyline points="22,14 22,6 28,14" fill="none"/>
    </g>
    <text x="74" y="38" font-family="system-ui, sans-serif" font-size="15" font-weight="700" fill="#e2e8f0">Lifecycle Management</text>
    <text x="74" y="58" font-family="system-ui, sans-serif" font-size="12" fill="#6ee7b7">STM → LTM → Archived · sleep consolidation</text>
    <text x="74" y="76" font-family="system-ui, sans-serif" font-size="12" fill="#94a3b8">Graph-aware decay · auto-resurrect</text>
    <g transform="translate(20,88)">
      <rect width="124" height="18" rx="9" fill="#10b981" fill-opacity="0.14"/>
      <text x="62" y="12" text-anchor="middle" font-family="ui-monospace, monospace" font-size="10" fill="#6ee7b7">deep_recall · run_consolidation</text>
    </g>
  </g>

  <!-- 5. Multi-Agent -->
  <g transform="translate(315,218)" filter="url(#card)">
    <rect width="270" height="112" rx="12" fill="#0f172a" stroke="#1e293b"/>
    <rect width="270" height="3" rx="1.5" fill="url(#c5)"/>
    <circle cx="40" cy="44" r="22" fill="#3b82f6" fill-opacity="0.14"/>
    <g transform="translate(22,30)" stroke="url(#c5)" stroke-width="2" fill="none" stroke-linecap="round" filter="url(#gl)">
      <circle cx="9" cy="9" r="6"/>
      <circle cx="27" cy="9" r="6"/>
      <path d="M15 9 L21 9" stroke-dasharray="2,2"/>
    </g>
    <text x="74" y="38" font-family="system-ui, sans-serif" font-size="15" font-weight="700" fill="#e2e8f0">Multi-Agent Sharing</text>
    <text x="74" y="58" font-family="system-ui, sans-serif" font-size="12" fill="#93c5fd">Namespace ownership + perms</text>
    <text x="74" y="76" font-family="system-ui, sans-serif" font-size="12" fill="#94a3b8">Cross-namespace RRF search</text>
    <g transform="translate(20,88)">
      <rect width="124" height="18" rx="9" fill="#3b82f6" fill-opacity="0.14"/>
      <text x="62" y="12" text-anchor="middle" font-family="ui-monospace, monospace" font-size="10" fill="#93c5fd">cross_search · whoami</text>
    </g>
  </g>

  <!-- 6. Local-First -->
  <g transform="translate(600,218)" filter="url(#card)">
    <rect width="270" height="112" rx="12" fill="#0f172a" stroke="#1e293b"/>
    <rect width="270" height="3" rx="1.5" fill="url(#c6)"/>
    <circle cx="40" cy="44" r="22" fill="#f59e0b" fill-opacity="0.14"/>
    <g transform="translate(26,28)" stroke="url(#c6)" stroke-width="2" fill="none" stroke-linecap="round" filter="url(#gl)">
      <rect x="2" y="0" width="20" height="26" rx="3"/>
      <line x1="7" y1="7" x2="17" y2="7"/>
      <line x1="7" y1="13" x2="17" y2="13"/>
      <line x1="7" y1="19" x2="14" y2="19"/>
    </g>
    <text x="74" y="38" font-family="system-ui, sans-serif" font-size="15" font-weight="700" fill="#e2e8f0">Local-First</text>
    <text x="74" y="58" font-family="system-ui, sans-serif" font-size="12" fill="#fcd34d">ONNX embeddings · concurrent</text>
    <text x="74" y="76" font-family="system-ui, sans-serif" font-size="12" fill="#94a3b8">JSON or SQLite · no API keys</text>
    <g transform="translate(20,88)">
      <rect width="102" height="18" rx="9" fill="#f59e0b" fill-opacity="0.14"/>
      <text x="51" y="12" text-anchor="middle" font-family="ui-monospace, monospace" font-size="10" fill="#fcd34d">MIT · offline</text>
    </g>
  </g>

  <!-- 7. Memory Diffusion (hero / spanning row, NEW v0.9.0) -->
  <g transform="translate(30,346)" filter="url(#card)">
    <rect width="840" height="98" rx="12" fill="#0f172a" stroke="#1e293b"/>
    <rect width="840" height="98" rx="12" fill="url(#ripple)"/>
    <rect width="840" height="3" rx="1.5" fill="url(#c7)"/>

    <!-- Brain/wave icon -->
    <circle cx="42" cy="50" r="26" fill="#a78bfa" fill-opacity="0.14"/>
    <g transform="translate(28,40)" stroke="url(#c7)" stroke-width="2.2" fill="none" stroke-linecap="round" filter="url(#gl)">
      <path d="M2 12 Q 6 4 12 12 T 22 12 T 32 12"/>
      <path d="M2 18 Q 6 10 12 18 T 22 18 T 32 18" opacity="0.55"/>
    </g>

    <!-- Title + NEW badge -->
    <text x="86" y="32" font-family="system-ui, sans-serif" font-size="16" font-weight="700" fill="#e2e8f0">Memory Diffusion</text>
    <g transform="translate(245,18)">
      <rect width="62" height="18" rx="9" fill="#5eead4" fill-opacity="0.18" stroke="#5eead4" stroke-opacity="0.55"/>
      <text x="31" y="12" text-anchor="middle" font-family="ui-monospace, monospace" font-size="10" font-weight="700" fill="#5eead4">v0.9.0</text>
    </g>

    <!-- Tagline -->
    <text x="86" y="52" font-family="system-ui, sans-serif" font-size="12" fill="#a78bfa">One graph-Laplacian eigenbasis · four subsystems · zero LLM calls</text>
    <text x="86" y="70" font-family="system-ui, sans-serif" font-size="11" fill="#94a3b8">Spreading-activation decay · sleep consolidation · auto-link densification · spectral retrieval re-rank</text>

    <!-- Mechanism chips -->
    <g transform="translate(86, 78)">
      <rect width="118" height="14" rx="7" fill="#5eead4" fill-opacity="0.10" stroke="#5eead4" stroke-opacity="0.40"/>
      <text x="59" y="10" text-anchor="middle" font-family="ui-monospace, monospace" font-size="9" fill="#5eead4">decay diffusion</text>
    </g>
    <g transform="translate(212, 78)">
      <rect width="118" height="14" rx="7" fill="#a78bfa" fill-opacity="0.12" stroke="#a78bfa" stroke-opacity="0.40"/>
      <text x="59" y="10" text-anchor="middle" font-family="ui-monospace, monospace" font-size="9" fill="#c4b5fd">sleep consolidation</text>
    </g>
    <g transform="translate(338, 78)">
      <rect width="118" height="14" rx="7" fill="#c4b5fd" fill-opacity="0.12" stroke="#c4b5fd" stroke-opacity="0.40"/>
      <text x="59" y="10" text-anchor="middle" font-family="ui-monospace, monospace" font-size="9" fill="#e9d5ff">auto-link scan</text>
    </g>
    <g transform="translate(464, 78)">
      <rect width="118" height="14" rx="7" fill="#f0abfc" fill-opacity="0.12" stroke="#f0abfc" stroke-opacity="0.40"/>
      <text x="59" y="10" text-anchor="middle" font-family="ui-monospace, monospace" font-size="9" fill="#f5d0fe">spectral retrieval</text>
    </g>

    <!-- Right-side metric -->
    <g transform="translate(660,30)">
      <rect width="170" height="26" rx="13" fill="#5eead4" fill-opacity="0.10" stroke="#5eead4" stroke-opacity="0.45"/>
      <text x="85" y="17" text-anchor="middle" font-family="ui-monospace, monospace" font-size="10" font-weight="700" fill="#5eead4">+12% recall · +28% precision</text>
    </g>
    <text x="745" y="68" text-anchor="middle" font-family="system-ui, sans-serif" font-size="9" fill="#64748b" font-style="italic">vs. baseline retrieval (auto mode)</text>
  </g>
</svg>
